<?xml version="1.0" standalone="no"?>
<!DOCTYPE svg PUBLIC "-//W3C//DTD SVG 20010904//EN"
 "http://www.w3.org/TR/2001/REC-SVG-20010904/DTD/svg10.dtd">
<svg version="1.0" xmlns="http://www.w3.org/2000/svg"
 width="512.000000pt" height="512.000000pt" viewBox="0 0 512.000000 512.000000"
 preserveAspectRatio="xMidYMid meet" >
<metadata>
Created by potrace 1.14, written by Peter Selinger 2001-2017
</metadata>
  <rect width="100%" height="100%" fill="white"/>
<g transform="translate(0.000000,512.000000) scale(0.100000,-0.100000)"
fill="#071334" stroke="none">
<path d="M0 2560 l0 -2560 2560 0 2560 0 0 2560 0 2560 -2560 0 -2560 0 0
-2560z m2837 1318 c17 -16 23 -32 23 -67 0 -25 9 -64 21 -89 28 -57 167 -196
300 -297 238 -183 309 -294 309 -486 0 -74 -1 -78 -31 -103 -40 -34 -74 -33
-110 3 -26 26 -29 36 -29 90 0 123 -49 209 -173 303 -45 34 -123 97 -173 140
-51 43 -97 78 -103 78 -8 0 -11 -74 -9 -262 l3 -262 81 -46 c224 -124 366
-308 441 -570 26 -89 23 -333 -6 -435 -74 -266 -257 -476 -512 -586 -114 -50
-213 -69 -352 -69 -360 0 -677 213 -818 549 -43 103 -61 200 -62 336 -2 234
76 432 241 607 175 185 421 286 672 276 58 -3 112 -7 120 -9 13 -3 16 51 20
433 l5 436 24 26 c31 33 85 35 118 4z"/>
<path d="M2435 2815 c-5 -2 -43 -11 -84 -20 -257 -59 -457 -257 -526 -520 -16
-60 -22 -136 -11 -153 5 -9 55 -12 177 -12 l171 0 26 31 c15 17 54 50 87 73
116 82 212 112 336 103 l79 -5 0 243 0 242 -57 12 c-51 10 -174 14 -198 6z"/>
<path d="M2860 2420 l0 -300 23 -5 c12 -3 96 -4 187 -3 l165 3 -3 60 c-8 139
-77 293 -182 407 -65 71 -152 138 -178 138 -9 0 -12 -79 -12 -300z"/>
<path d="M1830 1920 c0 -57 86 -214 164 -297 99 -106 183 -160 316 -204 64
-21 94 -24 210 -24 147 0 195 9 300 58 124 58 223 142 296 252 37 54 83 154
99 213 l6 22 -205 0 -205 0 -83 -83 c-79 -78 -128 -110 -228 -148 -22 -9 -75
-14 -140 -14 -111 1 -148 13 -207 68 -25 23 -63 114 -63 152 l0 25 -130 0
c-122 0 -130 -1 -130 -20z"/>
</g>
</svg>
